<svg xmlns="http://www.w3.org/2000/svg" viewBox="0 0 1652.85 1080"><defs><style>.cls-1{fill:none;}.cls-2{fill:#f7b633;}.cls-3{fill:#4bbbaa;}.cls-4{fill:#fa4b16;}</style></defs><g id="Layer_2" data-name="Layer 2"><g id="Layer_5" data-name="Layer 5"><rect class="cls-1" width="1652.85" height="1080"/></g><g id="Layer_6" data-name="Layer 6"><polygon class="cls-2" points="223.15 683.37 403.86 804.05 403.89 804.05 749.09 550.39 407.56 299.48 223.15 683.37"/><polygon class="cls-3" points="205.13 720.9 34.97 1075.11 368.58 829.98 205.13 720.9"/><polygon class="cls-4" points="0 584.02 0 1053.74 170.78 697.99 0 584.02"/><polygon class="cls-3" points="0 534.37 188.8 660.43 373.93 274.75 0 0 0 534.37"/><polygon class="cls-2" points="524.36 0 412.69 232.45 96.3 0 524.36 0"/><polygon class="cls-3" points="1206.17 257.43 828.43 534.98 828.43 534.99 828.42 534.99 828.41 534.98 450.67 257.43 574.24 0 1082.6 0 1206.17 257.43"/><polygon class="cls-3" points="828.43 534.99 828.42 535 828.42 534.99 828.43 534.99"/><polygon class="cls-2" points="535.94 1080 124.83 1080 428.7 856.76 535.94 1080"/><polygon class="cls-3" points="1195.16 832.68 1076.44 1080 580.48 1080 461.68 832.51 828.42 563.04 828.42 563.21 1195.16 832.68"/><polygon class="cls-2" points="1429.71 686.54 1248.99 807.22 1248.96 807.22 903.76 553.56 1245.3 302.64 1429.71 686.54"/><polygon class="cls-3" points="1447.72 724.07 1617.89 1078.27 1284.27 833.14 1447.72 724.07"/><polygon class="cls-4" points="1652.85 587.19 1652.85 1056.9 1482.07 701.16 1652.85 587.19"/><polygon class="cls-3" points="1652.85 537.53 1464.06 663.59 1278.92 277.92 1652.85 3.17 1652.85 537.53"/><polygon class="cls-2" points="1552.55 0 1236.15 232.45 1124.49 0 1552.55 0"/><polygon class="cls-3" points="828.42 534.99 828.42 535 828.41 535 828.41 534.98 828.42 534.99"/><polygon class="cls-2" points="1531.79 1080 1121 1080 1228.15 856.93 1531.79 1080"/></g></g></svg>